<svg width="4740" height="4144" viewBox="0 0 4740 4144" fill="none" xmlns="http://www.w3.org/2000/svg">
<path d="M3121.78 833.603C2988.47 545.729 2775.8 471.673 2775.8 471.673L2800.01 268.156C2800.01 268.156 3118.73 431.351 3262.73 769.12C3381.46 1047.63 3315.55 1333.37 3347.56 1563.13C3438.21 1800.81 3728.86 1989.29 3701.5 2115.7C3674.14 2242.11 3483.22 2271.41 3482.8 2341.79C3482.38 2412.18 3564.12 2437.49 3546.19 2505.56C3530.96 2563.37 3452.68 2556.5 3442.65 2615.43C3433.03 2672 3505.37 2666.17 3499.29 2746.44C3493.84 2818.43 3424.62 2793.99 3413.07 2900.7C3403.56 3051.78 3455.62 3226.18 3350.73 3283.16C3164.51 3384.33 2676.66 3213.43 2564.56 3351.27C2466.45 3448.75 2445.3 3534.32 2400.75 3665.25C2348.65 3818.35 2354.89 3963.74 2343.08 4039.2C2334.02 4097.08 2317.94 4136.65 2281.3 4139.63C2244.65 4142.61 2212.57 4109.16 2212.57 4045.08C2212.57 3939.27 2220.06 3805.5 2260.42 3639.21C2302.36 3466.4 2426.43 3219.34 2426.43 3219.34C2426.43 3219.34 2272.29 3162.45 2177.16 3095.91C2050.26 3007.16 1966.68 2947.19 1904.34 2796.1C1987.31 2876.39 2240.69 3014.4 2479.61 3095.91C2693.23 3168.8 2872.21 3188.88 2946.7 3194.66C3003.62 3199.07 3223.67 3232.28 3284.73 3160.48C3342.95 3092 3314.22 3019.46 3300.97 2930.56C3292.12 2871.12 3272.65 2828.58 3334.1 2793.99C3362.8 2777.84 3388.85 2758.12 3383.47 2725.63C3378.28 2694.32 3323.72 2671.67 3323.72 2671.67L3207.87 2647.24C3207.87 2647.24 3101.87 2617.3 3111.93 2590.81C3120.76 2567.57 3144.82 2571.83 3172.69 2571.83C3256.61 2571.83 3350.43 2562.84 3383.47 2530.05C3401.58 2512.08 3417.47 2502.09 3421.45 2476.88C3426.62 2444.12 3396.22 2416.33 3383.47 2400.93C3371.16 2386.07 3344.01 2346.6 3349.73 2305.21C3356.04 2259.45 3386.9 2245.62 3428.53 2225.61C3469.51 2205.91 3507.92 2177.53 3529.68 2161.67C3560.02 2139.55 3572.83 2110.38 3567.4 2073.23C3562.06 2036.79 3498.56 1986.12 3474.24 1958.45C3428.53 1906.43 3293.52 1769.61 3216.54 1580.95C3210.23 1398.12 3249.21 1108.77 3121.78 833.603Z" fill="black" stroke="black" stroke-width="7" stroke-linejoin="round"/>
<path d="M2772.26 1704.53C2756.17 1710.81 2737.87 1717.94 2740.4 1734.98C2743.36 1754.96 2785.64 1742.08 2791.43 1743.48C2795.75 1744.53 2898.73 1800.53 2934.16 1814.76C2955.34 1823.26 2992.87 1840.24 3014.25 1827.68C3035.05 1815.46 3039.22 1796.78 3041.58 1772.17C3044.83 1738.35 3041.58 1685.84 3041.58 1680.37C3041.58 1674.9 3058.81 1658.65 3065.79 1653.31C3077.4 1644.43 3087.69 1635.45 3082.29 1621.86C3074.93 1603.34 3050.25 1613.82 3031.26 1619.61C2998.06 1629.74 2873.05 1665.24 2772.71 1704.36L2772.26 1704.53Z" fill="black" stroke="black" stroke-width="7"/>
<path d="M2636.7 1376.08C2621.15 1389.39 2613.23 1410.78 2625.56 1427.11C2638.37 1444.07 2665.81 1425.19 2682.54 1417.75C2713.78 1403.85 2839.62 1351.41 2919.82 1355.67C2977.42 1358.72 2981.62 1357.85 3036.34 1376.08C3055.48 1382.46 3096.9 1394.35 3113.74 1376.08C3165.52 1319.92 2979.98 1243.36 2950.52 1239.15C2879 1228.94 2707.22 1315.7 2636.7 1376.08Z" fill="black" stroke="black" stroke-width="7"/>
<path d="M1620.31 1945.76C1602.77 1891.84 1509.19 1804.58 1459.55 1814.63C1418.51 1822.95 1399.64 1836.59 1377.97 1877.97C1369.6 1893.95 1371.76 1987.94 1371.76 2000.48C1371.76 2015.55 1381.3 2034.03 1396.37 2034.03C1415.81 2034.03 1418.44 2000.87 1424.28 1979.47C1432.49 1949.43 1438.87 1902.43 1476.65 1902.43C1521.63 1902.43 1523.88 1945.76 1537.08 1993.43C1548.32 2034.03 1530.98 2107.04 1547.99 2170.42C1551.97 2185.26 1606.35 2218.26 1637.44 2228.79C1654.15 2234.45 1710.92 2244.31 1713.56 2216.73C1715.94 2191.9 1701.17 2190.9 1686.92 2170.42C1674.43 2152.47 1638.91 2111.29 1624.75 2065.11C1620.31 2050.66 1634.65 1989.79 1620.31 1945.76Z" fill="black" stroke="black" stroke-width="7"/>
<path d="M3655.18 641.566C3655.18 641.566 3815.57 609.817 3888.79 543.203C3993.69 447.765 4000.96 206.807 4001.46 172.331C4001.47 169.633 4001.49 168.199 4001.49 168.199C4001.49 168.199 4001.5 169.633 4001.46 172.331C4001.34 206.783 4004.31 447.438 4108.05 543.203C4179.71 609.345 4337.56 641.566 4337.56 641.566C4337.56 641.566 4178.82 679.154 4108.05 748.124C4004.52 849.024 4001.49 1102.64 4001.49 1102.64C4001.49 1102.64 3993.65 848.663 3888.79 748.124C3816.41 678.729 3655.18 641.566 3655.18 641.566Z" fill="black" stroke="black" stroke-width="7"/>
<path d="M4128.02 1612.06C4128.02 1612.06 4271.51 1583.66 4337.01 1524.07C4430.85 1438.69 4437.35 1223.13 4437.8 1192.29C4437.81 1189.88 4437.83 1188.59 4437.83 1188.59C4437.83 1188.59 4437.84 1189.88 4437.8 1192.29C4437.7 1223.11 4440.35 1438.4 4533.16 1524.07C4597.26 1583.24 4738.48 1612.06 4738.48 1612.06C4738.48 1612.06 4596.47 1645.69 4533.16 1707.39C4440.54 1797.65 4437.83 2024.53 4437.83 2024.53C4437.83 2024.53 4430.82 1797.33 4337.01 1707.39C4272.26 1645.31 4128.02 1612.06 4128.02 1612.06Z" fill="black" stroke="black" stroke-width="7"/>
<path d="M3924 2562.72C3924 2562.72 4001.59 2547.36 4037 2515.14C4087.75 2468.97 4091.26 2352.41 4091.51 2335.73C4091.51 2334.43 4091.52 2333.73 4091.52 2333.73C4091.52 2333.73 4091.52 2334.43 4091.51 2335.73C4091.45 2352.4 4092.88 2468.81 4143.07 2515.14C4177.73 2547.13 4254.09 2562.72 4254.09 2562.72C4254.09 2562.72 4177.3 2580.9 4143.07 2614.26C4092.99 2663.07 4091.52 2785.75 4091.52 2785.75C4091.52 2785.75 4087.73 2662.9 4037 2614.26C4001.99 2580.69 3924 2562.72 3924 2562.72Z" fill="black" stroke="black" stroke-width="7"/>
<path d="M101.759 3373.14C371.471 3858.45 995.401 3787.67 986.36 3801.71C926.152 3895.19 872.633 3955.59 854.015 3978.66C826.974 4012.17 753.645 4097 753.645 4112.23C753.645 4118.2 862.245 4112.23 926.152 4112.23C935.439 4112.23 952.489 4081.7 968.951 4061.79C1179.69 3806.91 1274.39 3630.81 1388.16 3320.27C1522.53 2953.51 1475.14 2514.31 1496.07 2512.46C1519.41 2510.4 1576.71 2530.31 1634.4 2523.81C1687.6 2517.81 1745.33 2465.7 1719.73 2444.17C1698.2 2426.05 1662.52 2436 1634.4 2437.26C1538.08 2441.59 1415.72 2367.04 1321.43 2241.45C1200.86 2080.87 1181.61 1839.46 1310.93 1732.2C1496.07 1578.64 1698.81 1822.77 1733.55 1813.58C1780.63 1801.13 2242.3 1523.83 2471.17 1215.08C2754.18 833.312 2781.58 766.741 2818.53 279.341C2779.01 240.598 2710.65 185.686 2678.65 169.22C2116.37 -120.16 1406.74 -46.1203 864.96 520.043C335.414 1073.42 516.008 1469.62 314.626 2073.76C144.112 2585.29 -150.829 2918.65 101.759 3373.14Z" fill="black" stroke="black" stroke-width="7"/>
</svg>
