<svg xmlns="http://www.w3.org/2000/svg" width="1200" height="700" viewBox="0 0 1200 700"><rect width="100%" height="100%" fill="#667eea"/><path fill="#ffffff" d="M262.155 287.205v100.5h-18.76v-100.5zm36.91 100.5h-17.17v-71.31h10.49q3.34 0 4.38 3.13l1.12 5.28q1.87-2.08 3.92-3.82t4.38-2.99 5-1.98q2.68-.73 5.88-.73 6.74 0 11.08 3.65 4.35 3.65 6.5 9.69 1.67-3.54 4.17-6.08 2.5-2.53 5.49-4.13t6.36-2.36q3.37-.77 6.78-.77 5.9 0 10.49 1.81 4.59 1.8 7.72 5.28 3.12 3.47 4.76 8.48 1.63 5 1.63 11.47v45.38h-17.17v-45.38q0-6.81-2.99-10.25-2.98-3.45-8.75-3.45-2.64 0-4.9.91-2.26.9-3.96 2.6-1.71 1.71-2.68 4.28t-.97 5.91v45.38h-17.24v-45.38q0-7.16-2.88-10.43-2.89-3.27-8.45-3.27-3.75 0-6.98 1.85-3.23 1.84-6.01 5.04zm136.91-18.42v-12.02q-7.43.35-12.51 1.28-5.07.94-8.13 2.4t-4.38 3.41q-1.32 1.94-1.32 4.24 0 4.51 2.68 6.46 2.67 1.95 6.98 1.95 5.28 0 9.14-1.91 3.86-1.92 7.54-5.81m-36.28-37.46-3.06-5.49q12.31-11.26 29.61-11.26 6.26 0 11.19 2.05 4.94 2.05 8.34 5.7 3.41 3.65 5.18 8.72 1.77 5.08 1.77 11.12v45.04h-7.78q-2.44 0-3.76-.73t-2.08-2.95l-1.53-5.15q-2.71 2.44-5.28 4.28t-5.35 3.09-5.95 1.91q-3.16.66-6.98.66-4.52 0-8.34-1.21-3.82-1.22-6.6-3.65-2.78-2.44-4.31-6.05t-1.53-8.41q0-2.71.9-5.39.91-2.67 2.96-5.1 2.05-2.44 5.31-4.59 3.27-2.16 8.03-3.75 4.76-1.6 11.09-2.61 6.32-1.01 14.45-1.22v-4.17q0-7.15-3.06-10.59-3.05-3.45-8.82-3.45-4.17 0-6.92.98-2.74.97-4.83 2.19-2.08 1.21-3.79 2.19-1.7.97-3.78.97-1.81 0-3.06-.94t-2.02-2.19m95.22 18.49q3.19 0 5.56-.87 2.36-.87 3.92-2.4 1.57-1.53 2.37-3.68.8-2.16.8-4.73 0-5.28-3.17-8.37-3.16-3.09-9.48-3.09-6.33 0-9.49 3.09t-3.16 8.37q0 2.5.8 4.66.8 2.15 2.36 3.72 1.56 1.56 3.96 2.43t5.53.87m19.39 40.59q0-2.09-1.25-3.41t-3.41-2.05q-2.15-.73-5.04-1.08-2.88-.34-6.11-.52-3.23-.17-6.68-.31-3.44-.14-6.7-.56-2.85 1.6-4.62 3.76-1.78 2.15-1.78 5 0 1.88.94 3.51t2.99 2.82q2.05 1.18 5.32 1.84 3.26.66 7.99.66 4.8 0 8.27-.73 3.48-.73 5.73-2.02 2.26-1.28 3.31-3.06 1.04-1.77 1.04-3.85m-3.41-72.07h20.51v6.39q0 3.06-3.69 3.75l-6.39 1.18q1.46 3.69 1.46 8.07 0 5.28-2.12 9.55-2.12 4.28-5.88 7.26-3.75 2.99-8.86 4.63-5.1 1.63-11.01 1.63-2.09 0-4.03-.21-1.95-.21-3.83-.55-3.33 2.01-3.33 4.51 0 2.16 1.98 3.17 1.98 1 5.25 1.42 3.26.42 7.43.52 4.17.11 8.55.45 4.38.35 8.55 1.22t7.44 2.74q3.26 1.88 5.24 5.11t1.98 8.31q0 4.72-2.32 9.17-2.33 4.45-6.75 7.93-4.41 3.47-10.84 5.59t-14.63 2.12q-8.06 0-14.04-1.56-5.97-1.57-9.93-4.17-3.97-2.61-5.91-6.02-1.95-3.4-1.95-7.08 0-5.01 3.02-8.38 3.03-3.37 8.31-5.39-2.85-1.46-4.52-3.89t-1.67-6.39q0-1.6.6-3.3.59-1.71 1.73-3.37 1.15-1.67 2.89-3.17 1.73-1.49 4.1-2.67-5.42-2.92-8.52-7.79-3.09-4.86-3.09-11.39 0-5.29 2.12-9.56t5.91-7.3q3.79-3.02 8.96-4.62 5.18-1.6 11.3-1.6 4.58 0 8.62.94 4.03.94 7.36 2.75m44.9 25.02h32.39q0-3.34-.94-6.29-.94-2.96-2.82-5.18-1.87-2.23-4.76-3.51-2.88-1.29-6.7-1.29-7.44 0-11.71 4.24-4.28 4.24-5.46 12.03m43.78 10.35h-44.13q.42 5.49 1.95 9.49 1.53 3.99 4.03 6.6t5.94 3.89q3.44 1.29 7.61 1.29t7.19-.98q3.03-.97 5.29-2.15t3.96-2.15q1.7-.98 3.3-.98 2.15 0 3.2 1.6l4.93 6.26q-2.85 3.33-6.39 5.59-3.55 2.26-7.4 3.62-3.86 1.35-7.86 1.91-3.99.55-7.75.55-7.43 0-13.83-2.46-6.39-2.47-11.12-7.3-4.72-4.83-7.43-11.96-2.71-7.12-2.71-16.5 0-7.3 2.36-13.73t6.77-11.19q4.42-4.76 10.78-7.54t14.35-2.78q6.74 0 12.44 2.16 5.7 2.15 9.8 6.29 4.1 4.13 6.43 10.14t2.33 13.73q0 3.89-.84 5.25-.83 1.35-3.2 1.35m116.76-52.12h-44.61v27.87h35.16v14.38h-35.16v28.43h44.61v14.94h-63.38v-100.5h63.38zm28.99 18.62 1.04 8.06q3.33-6.39 7.92-10.04t10.84-3.65q4.94 0 7.93 2.16l-1.12 12.85q-.34 1.26-1 1.78t-1.78.52q-1.04 0-3.09-.35t-3.99-.35q-2.85 0-5.08.84-2.22.83-3.99 2.39-1.78 1.57-3.13 3.79-1.36 2.23-2.54 5.08v43.92h-17.16v-71.31h10.07q2.64 0 3.69.94 1.04.94 1.39 3.37m51.84 0 1.05 8.06q3.33-6.39 7.92-10.04t10.84-3.65q4.94 0 7.92 2.16l-1.11 12.85q-.35 1.26-1.01 1.78t-1.77.52q-1.04 0-3.09-.35t-4-.35q-2.85 0-5.07.84-2.22.83-4 2.39-1.77 1.57-3.12 3.79-1.36 2.23-2.54 5.08v43.92h-17.17v-71.31h10.08q2.64 0 3.68.94 1.05.94 1.39 3.37m68.25-5.42q7.93 0 14.42 2.57 6.5 2.57 11.12 7.3 4.63 4.73 7.13 11.54t2.5 15.22q0 8.48-2.5 15.29t-7.13 11.6q-4.62 4.8-11.12 7.37-6.49 2.57-14.42 2.57-7.99 0-14.52-2.57-6.54-2.57-11.16-7.37-4.62-4.79-7.16-11.6-2.53-6.81-2.53-15.29 0-8.41 2.53-15.22 2.54-6.81 7.16-11.54t11.16-7.3q6.53-2.57 14.52-2.57m0 60.26q8.9 0 13.17-5.98 4.28-5.98 4.28-17.51 0-11.54-4.28-17.59-4.27-6.04-13.17-6.04-9.03 0-13.38 6.08-4.34 6.08-4.34 17.55 0 11.46 4.34 17.48 4.35 6.01 13.38 6.01m63.46-54.84 1.04 8.06q3.33-6.39 7.92-10.04t10.84-3.65q4.94 0 7.93 2.16l-1.12 12.85q-.34 1.26-1 1.78t-1.78.52q-1.04 0-3.09-.35t-3.99-.35q-2.85 0-5.08.84-2.22.83-3.99 2.39-1.78 1.57-3.13 3.79-1.36 2.23-2.54 5.08v43.92h-17.17v-71.31h10.08q2.64 0 3.69.94 1.04.94 1.39 3.37"/></svg>